<svg xmlns="http://www.w3.org/2000/svg" width="420" height="12"><path d="M147.938.907c-4.691.385-24.52 4.58-130.563 5.062H-.219c3.122 0 5.79.025 8.781.031-2.99.01-5.66.031-8.78.031h17.593c131.84.599 130.217 7.197 132.406 4.438 4.552-3.467 10.301-4.096 14.469-4.438h.531c-.063 0-.123-.027-.187-.031.063 0 .124-.027.187-.031h-.531c-4.168-.342-9.917-.971-14.469-4.437-.428-.54-.702-.72-1.844-.625zm122.78 0c-.448.06-.651.265-.937.625-4.552 3.466-10.3 4.095-14.469 4.437h-.687c.113.01.228.023.344.031-.064 0-.125.027-.188.031h.531c4.168.342 9.917.971 14.47 4.438 2.188 2.759.566-3.84 132.406-4.438h17.593c-3.121 0-5.79-.025-8.781-.031 2.99-.01 5.66-.031 8.781-.031h-17.594C287.546 5.449 273.714.506 270.72.907zm-16.093 5.062h-.219c-.29-.017-.543-.021-.812-.031-4.576-.67-8.813-4.906-8.813-4.906-4.087 3.986-8.677 4.803-9.625 4.937h-.375s.16.028.188.031c-.028 0-.188.031-.188.031h.375c.948.135 5.538.952 9.625 4.938 0 0 4.257-4.25 8.844-4.906.259-.01.503-.015.781-.031-.073 0-.145-.026-.219-.031.146-.011.292-.028.438-.031zm-19.844.062L234.72 6l.062-.031h-.125c-9.914-4.936-14.918-4.937-24.875-4.937s-14.96 0-24.875 4.937h-.125l.063.031-.063.031h.125c9.914 4.935 14.919 4.938 24.875 4.938 9.957 0 14.962 0 24.875-4.938zm-50 0s-.16-.028-.187-.031c.028 0 .187-.031.187-.031h-.375c-.948-.135-5.537-.952-9.625-4.937 0 0-4.236 4.235-8.812 4.906-.27.01-.522.014-.813.03.074 0 .146.027.219.032-.073.01-.145.028-.219.03.278.017.522.022.781.032 4.588.656 8.844 4.906 8.844 4.906 4.088-3.986 8.677-4.803 9.625-4.937h.375z"/></svg>