<svg width="200" height="200" xmlns="http://www.w3.org/2000/svg"><g fill="none" fill-rule="evenodd"><path fill="#000" d="M0 0h200v200H0z"/><path d="M107.5 76.9V50h-15v26.9l7.5 10.3 7.5-10.3zM92.5 123.1V150h15v-26.9l-7.5-10.3-7.5 10.3z" fill="#FFF"/><path d="M107.5 123.1l15.8 21.8 12.2-8.9-15.9-21.7-12.1-4v12.8zM92.5 76.9L76.7 55.1 64.5 64l15.9 21.7 12.1 4V76.9z" fill="#00F2E6"/><path d="M80.4 85.7l-25.6-8.3-4.7 14.3 25.6 8.3 12.2-3.9-7.5-10.4zM112.1 103.9l7.5 10.4 25.6 8.3 4.7-14.3-25.6-8.3-12.2 3.9z" fill="#00B9F1"/><path d="M124.3 100l25.6-8.3-4.7-14.3-25.6 8.3-7.5 10.4 12.2 3.9zM75.7 100l-25.6 8.3 4.7 14.3 25.6-8.3 7.5-10.4-12.2-3.9z" fill="#D63AFF"/><path d="M80.4 114.3L64.5 136l12.2 8.9 15.8-21.8v-12.8l-12.1 4zM119.6 85.7L135.5 64l-12.2-8.9-15.8 21.8v12.8l12.1-4z" fill="#FB015B"/></g></svg>