<svg xmlns="http://www.w3.org/2000/svg" width="320" height="320"><g transform="matrix(3.03134 0 0 2.93211 12.5 12.494)"><circle cx="9.124" cy="46.904" r="9.124" fill="#ff6309"/><circle cx="74.548" cy="84.667" r="9.124" fill="#ffb515"/><path d="M52.739 24.327c11.361 0 20.787 8.436 22.348 19.373h15.632c-.71-8.594-4.273-16.604-10.23-22.921-3.815 1.943-8.506 1.98-12.491-.32-3.988-2.303-6.302-6.387-6.524-10.667a38.438 38.438 0 0 0-8.735-1.002c-5.704 0-11.216 1.245-16.229 3.606l7.826 13.555a22.458 22.458 0 0 1 8.403-1.624z" fill="#ff6309"/><path d="M75.088 50.098C73.531 61.039 64.103 69.48 52.739 69.48c-2.97 0-5.807-.578-8.406-1.626L36.506 81.41c5.012 2.362 10.526 3.608 16.232 3.608 2.981 0 5.91-.344 8.742-1.004.218-4.285 2.533-8.376 6.524-10.68 3.986-2.302 8.679-2.265 12.495-.318 5.952-6.318 9.511-14.327 10.219-22.918h-15.63z" fill="#c90016"/><path d="M30.163 46.904c0-7.193 3.381-13.61 8.636-17.747l-7.824-13.553a38.649 38.649 0 0 0-5.188 4.349c-4.528 4.528-7.775 9.995-9.562 15.962 3.6 2.332 5.984 6.38 5.984 10.989 0 4.608-2.384 8.657-5.984 10.988 1.787 5.967 5.034 11.434 9.562 15.962a38.683 38.683 0 0 0 5.184 4.348l7.825-13.554c-5.254-4.137-8.633-10.554-8.633-17.744z" fill="#ffb515"/><circle cx="74.54" cy="9.126" r="9.124" fill="#c90016"/></g></svg>